<?xml version="1.0"?>
<svg xmlns="http://www.w3.org/2000/svg" xmlns:xlink="http://www.w3.org/1999/xlink" xmlns:svgjs="http://svgjs.com/svgjs" version="1.1" width="512" height="512" x="0" y="0" viewBox="0 0 496 496" style="enable-background:new 0 0 512 512" xml:space="preserve"><g>
<g xmlns="http://www.w3.org/2000/svg">
	<g>
		<path d="M496,248C496,111.248,384.752,0,248,0S0,111.248,0,248v3.904C0,312.48,22.064,370.632,62.112,416H16v32H0v48h496v-48h-16    v-32h-46.112C473.936,370.632,496,312.48,496,251.904V248z M464,432v16h-16v16h32v16H16v-16h416v-16H32v-16H464z M300,392.688    L259.312,352L300,311.312L340.688,352L300,392.688z M300.688,416h-1.376l0.688-0.688L300.688,416z M196,392.688L155.312,352    L196,311.312L236.688,352L196,392.688z M196.688,416h-1.376l0.688-0.688L196.688,416z M340.688,248L300,288.688L259.312,248    L300,207.312L340.688,248z M311.312,196L348,159.312L388.688,200L352,236.688L311.312,196z M288.688,300L248,340.688L207.312,300    L248,259.312L288.688,300z M248,236.688L207.312,196L248,155.312L288.688,196L248,236.688z M236.688,248L196,288.688L155.312,248    L196,207.312L236.688,248z M184.688,300L144,340.688L103.312,300L144,259.312L184.688,300z M248,363.312L288.688,404l-12,12    h-57.376l-12-12L248,363.312z M352,363.312L372.688,384l-32,32h-17.376l-12-12L352,363.312z M363.312,352L404,311.312    l12.008,12.008c-7.952,17.824-18.816,34.344-32.296,49.08L363.312,352z M415.312,300l12.424-12.424    c-1.424,6.608-3.264,13.08-5.4,19.448L415.312,300z M404,288.688l-14.328-14.328l-11.312,11.312L392.688,300L352,340.688    L311.312,300L352,259.312l15.208,15.208l11.312-11.312L363.312,248L400,211.312l31.864,31.864c0.056,1.768,0.136,3.52,0.136,5.296    c0,4.32-0.336,8.576-0.624,12.84L404,288.688z M411.312,200l10.888-10.888c3.184,9.376,5.64,19.072,7.288,29.056L411.312,200z     M400,188.688L359.312,148l24.224-24.224c13.224,14.432,24.144,30.992,32.28,49.096L400,188.688z M348,136.688L307.312,96    l15.864-15.864c18.08,8.136,34.624,19.072,49.056,32.32L348,136.688z M336.688,148L300,184.688L259.312,144L296,107.312    L336.688,148z M296,84.688L277.752,66.44c10.024,1.64,19.776,4.104,29.192,7.304L296,84.688z M284.688,96L248,132.688L211.312,96    l31.88-31.88c1.6-0.04,3.192-0.12,4.808-0.12c1.616,0,3.208,0.08,4.808,0.12L284.688,96z M200,84.688l-10.944-10.944    c9.416-3.192,19.168-5.664,29.192-7.296L200,84.688z M200,107.312L236.688,144L196,184.688L159.312,148L200,107.312z M148,136.688    l-24.256-24.256c14.432-13.24,30.984-24.176,49.072-32.304L188.688,96L148,136.688z M136.688,148l-15.424,15.424l11.312,11.312    L148,159.312L184.688,196L144,236.688L107.312,200l13.504-13.504l-11.312-11.312L96,188.688l-15.872-15.872    c8.128-18.088,19.064-34.64,32.304-49.072L136.688,148z M84.688,200L66.44,218.248c1.64-10.032,4.104-19.776,7.304-29.192    L84.688,200z M96,211.312L132.688,248L92,288.688l-27.36-27.352C64.336,256.904,64,252.488,64,248c0-1.616,0.08-3.208,0.12-4.808    L96,211.312z M80.688,300l-7,7c-2.12-6.336-3.936-12.784-5.36-19.36L80.688,300z M92,311.312L132.688,352l-20.4,20.4    c-13.472-14.728-24.328-31.24-32.28-49.096L92,311.312z M144,363.312L184.688,404l-12,12h-17.376l-32-32L144,363.312z     M480,251.904c0,57.408-21.152,112.52-59.552,155.192L412.44,416h-49.128l26.112-26.112C427.192,352.12,448,301.888,448,248    c0-110.28-89.72-200-200-200S48,137.72,48,248.472c0,53.424,20.808,103.648,58.576,141.424L132.688,416H83.56l-8.008-8.896    C37.152,364.432,16,309.312,16,251.904V248C16,120.08,120.08,16,248,16s232,104.08,232,232V251.904z" fill="#ffffff" data-original="#000000" style=""/>
	</g>
</g>
<g xmlns="http://www.w3.org/2000/svg">
</g>
<g xmlns="http://www.w3.org/2000/svg">
</g>
<g xmlns="http://www.w3.org/2000/svg">
</g>
<g xmlns="http://www.w3.org/2000/svg">
</g>
<g xmlns="http://www.w3.org/2000/svg">
</g>
<g xmlns="http://www.w3.org/2000/svg">
</g>
<g xmlns="http://www.w3.org/2000/svg">
</g>
<g xmlns="http://www.w3.org/2000/svg">
</g>
<g xmlns="http://www.w3.org/2000/svg">
</g>
<g xmlns="http://www.w3.org/2000/svg">
</g>
<g xmlns="http://www.w3.org/2000/svg">
</g>
<g xmlns="http://www.w3.org/2000/svg">
</g>
<g xmlns="http://www.w3.org/2000/svg">
</g>
<g xmlns="http://www.w3.org/2000/svg">
</g>
<g xmlns="http://www.w3.org/2000/svg">
</g>
</g></svg>
