<?xml version="1.0"?>
<svg xmlns="http://www.w3.org/2000/svg" xmlns:xlink="http://www.w3.org/1999/xlink" xmlns:svgjs="http://svgjs.com/svgjs" version="1.1" width="512" height="512" x="0" y="0" viewBox="0 0 512 512" style="enable-background:new 0 0 512 512" xml:space="preserve" class=""><g><g xmlns="http://www.w3.org/2000/svg" id="Out_line" data-name="Out line"><path d="m384 448h-8v-40a8.00008 8.00008 0 0 0 -8-8h-16v-64a8.00008 8.00008 0 0 0 -8-8h-16v-64a8.00008 8.00008 0 0 0 -8-8h-16v-88a8.00008 8.00008 0 0 0 -8-8h-8v-40a8.00008 8.00008 0 0 0 -8-8v-56a8.00008 8.00008 0 0 0 -8-8h-8v-32h-16v32h-8a8.00008 8.00008 0 0 0 -8 8v56h-8a8.00008 8.00008 0 0 0 -8 8v72h-8a8.00008 8.00008 0 0 0 -8 8v88h-16a8.00008 8.00008 0 0 0 -8 8v40h-16a8.00008 8.00008 0 0 0 -8 8v64h-24a8.00008 8.00008 0 0 0 -8 8v72a8.00008 8.00008 0 0 0 8 8h256a8.00008 8.00008 0 0 0 8-8v-32a8.00008 8.00008 0 0 0 -8-8zm-136-384h16v48h-16zm-16 64h40v8h-32v16h32v8h-24a8.00008 8.00008 0 0 0 -8 8v24h-8zm-64 352h-32v-8h24v-16h-24v-8h24v-16h-24v-8h32zm24 0h-8v-64a8.00008 8.00008 0 0 0 -8-8h-8v-8h16v-16h-16v-8h16v-16h-16v-8h24zm24 0h-8v-136a8.00008 8.00008 0 0 0 -8-8h-8v-8h16v-16h-16v-8h24zm24 0h-8v-184a8.00008 8.00008 0 0 0 -8-8h-8v-8h16v-16h-16v-8h16v-16h-16v-8h16v-16h-16v-8h24zm32-216v216h-16v-304h32v8h-24v16h24v8h-24v16h24v8h-24v16h24v8h-8a8.00008 8.00008 0 0 0 -8 8zm24 72v144h-8v-208h24v8h-16v16h16v8h-16v16h16v8h-8a8.00008 8.00008 0 0 0 -8 8zm24 72v72h-8v-136h24v8h-16v16h16v8h-16v16h16v8h-8a8.00008 8.00008 0 0 0 -8 8zm24 48v24h-8v-64h24v8h-16v16h16v8h-8a8.00008 8.00008 0 0 0 -8 8zm32 24h-16v-16h16z" fill="#ffffff" data-original="#000000" style="" class=""/></g></g></svg>
