<?xml version="1.0"?>
<svg xmlns="http://www.w3.org/2000/svg" xmlns:xlink="http://www.w3.org/1999/xlink" xmlns:svgjs="http://svgjs.com/svgjs" version="1.1" width="512" height="512" x="0" y="0" viewBox="0 0 512 512" style="enable-background:new 0 0 512 512" xml:space="preserve" class=""><g><g xmlns="http://www.w3.org/2000/svg"><g><path d="m55.597 209.391c4.143 0 7.5-3.358 7.5-7.5v-20.041c0-4.142-3.357-7.5-7.5-7.5s-7.5 3.358-7.5 7.5v20.041c0 4.142 3.357 7.5 7.5 7.5z" fill="#ffffff" data-original="#000000" style="" class=""/><path d="m48.097 253.996c0 4.142 3.357 7.5 7.5 7.5s7.5-3.358 7.5-7.5v-20.041c0-4.142-3.357-7.5-7.5-7.5s-7.5 3.358-7.5 7.5z" fill="#ffffff" data-original="#000000" style="" class=""/><path d="m371.555 352.307c-1.879-.8-4-.8-5.879 0-1.221.521-29.914 13.097-29.914 43.992v45.074c0 4.142 3.357 7.5 7.5 7.5h50.707c4.143 0 7.5-3.358 7.5-7.5v-45.074c0-30.895-28.694-43.471-29.914-43.992zm14.914 81.566h-35.707v-37.574c0-16.234 12.093-25.267 17.846-28.646 5.73 3.382 17.861 12.455 17.861 28.646z" fill="#ffffff" data-original="#000000" style="" class=""/><path d="m146.324 352.307c-1.879-.8-4-.8-5.879 0-1.221.521-29.914 13.097-29.914 43.992v45.074c0 4.142 3.357 7.5 7.5 7.5h50.707c4.143 0 7.5-3.358 7.5-7.5v-45.074c0-30.895-28.693-43.471-29.914-43.992zm14.914 81.566h-35.707v-37.574c0-16.234 12.093-25.267 17.846-28.646 5.73 3.382 17.861 12.455 17.861 28.646z" fill="#ffffff" data-original="#000000" style="" class=""/><path d="m456.403 209.391c4.143 0 7.5-3.358 7.5-7.5v-20.041c0-4.142-3.357-7.5-7.5-7.5s-7.5 3.358-7.5 7.5v20.041c0 4.142 3.358 7.5 7.5 7.5z" fill="#ffffff" data-original="#000000" style="" class=""/><path d="m448.903 253.996c0 4.142 3.357 7.5 7.5 7.5s7.5-3.358 7.5-7.5v-20.041c0-4.142-3.357-7.5-7.5-7.5s-7.5 3.358-7.5 7.5z" fill="#ffffff" data-original="#000000" style="" class=""/><path d="m438.883 304.097c0 4.142 3.357 7.5 7.5 7.5h20.041c4.143 0 7.5-3.358 7.5-7.5s-3.357-7.5-7.5-7.5h-20.041c-4.143 0-7.5 3.358-7.5 7.5z" fill="#ffffff" data-original="#000000" style="" class=""/><path d="m38.076 304.097c0 4.142 3.357 7.5 7.5 7.5h20.041c4.143 0 7.5-3.358 7.5-7.5s-3.357-7.5-7.5-7.5h-20.041c-4.142 0-7.5 3.358-7.5 7.5z" fill="#ffffff" data-original="#000000" style="" class=""/><path d="m125.738 293.561h260.523c4.143 0 7.5-3.358 7.5-7.5s-3.357-7.5-7.5-7.5h-260.523c-4.143 0-7.5 3.358-7.5 7.5s3.358 7.5 7.5 7.5z" fill="#ffffff" data-original="#000000" style="" class=""/><path d="m504.5 114.23h-3.522v-9.534c0-22.371-16.568-40.94-38.076-44.096v-13.019c0-4.142-3.357-7.5-7.5-7.5s-7.5 3.358-7.5 7.5v13.364c-20.524 3.981-36.072 22.081-36.072 43.752v9.534h-3.522c-4.143 0-7.5 3.358-7.5 7.5v30.061c0 4.142 3.357 7.5 7.5 7.5h3.522v80.191h-18.067v-22.561c0-4.142-3.357-7.5-7.5-7.5h-7.53v-22.561c0-65.156-51.037-118.606-115.231-122.496v-8.489c4.521-1.253 8.666-3.65 12.073-7.057 4.253-4.252 6.947-9.64 7.792-15.583.584-4.101-2.268-7.898-6.369-8.481-4.091-.584-7.897 2.268-8.48 6.369-.385 2.701-1.611 5.151-3.549 7.088-2.368 2.369-5.518 3.673-8.866 3.673-3.35 0-6.499-1.304-8.867-3.673-4.89-4.89-4.89-12.845-.001-17.734 1.938-1.938 4.389-3.164 7.088-3.548 4.101-.583 6.952-4.38 6.37-8.48-.583-4.102-4.378-6.95-8.481-6.37-5.94.844-11.329 3.539-15.583 7.792-5.201 5.202-8.066 12.118-8.066 19.474s2.865 14.272 8.066 19.474c3.357 3.357 7.431 5.734 11.874 7.002v8.544c-64.195 3.89-115.231 57.34-115.231 122.496v22.561h-7.53c-4.143 0-7.5 3.358-7.5 7.5v22.561h-18.067v-80.191h3.522c4.143 0 7.5-3.358 7.5-7.5v-30.063c0-4.142-3.357-7.5-7.5-7.5h-3.522v-9.534c0-21.671-15.548-39.77-36.072-43.752v-13.363c0-4.142-3.357-7.5-7.5-7.5s-7.5 3.358-7.5 7.5v13.019c-21.509 3.156-38.076 21.725-38.076 44.096v9.534h-3.527c-4.143 0-7.5 3.358-7.5 7.5v30.061c0 4.142 3.357 7.5 7.5 7.5h3.522v218.441c0 4.142 3.357 7.5 7.5 7.5s7.5-3.358 7.5-7.5v-218.441h59.148v335.706h-59.148v-82.067c0-4.142-3.357-7.5-7.5-7.5s-7.5 3.358-7.5 7.5v89.567c0 4.142 3.357 7.5 7.5 7.5h474.955c4.143 0 7.5-3.358 7.5-7.5v-89.567c0-4.142-3.357-7.5-7.5-7.5s-7.5 3.358-7.5 7.5v82.067h-59.148v-335.706h59.148v218.441c0 4.142 3.357 7.5 7.5 7.5s7.5-3.358 7.5-7.5v-218.441h3.522c4.143 0 7.5-3.358 7.5-7.5v-30.061c.001-4.142-3.356-7.5-7.499-7.5zm-478.478-9.534c0-16.308 13.267-29.575 29.574-29.575s29.574 13.267 29.574 29.575v9.534h-59.148zm-11.022 39.595v-15.061h81.193v15.061zm241-65.162c56.882 0 103.602 44.314 107.466 100.232h-214.932c3.864-55.918 50.584-100.232 107.466-100.232zm-107.731 115.232h215.463v15.061h-215.463zm-48.098 60.121h138.15c4.143 0 7.5-3.358 7.5-7.5s-3.357-7.5-7.5-7.5h-105.083v-15.061h245.523v15.061h-105.235c-4.143 0-7.5 3.358-7.5 7.5s3.357 7.5 7.5 7.5h138.303v240.514h-94.221v-88.694c0-25.058-10.168-47.906-29.404-66.074-14.338-13.542-28.662-19.729-29.265-19.985-1.879-.8-4-.8-5.879 0-.603.257-14.927 6.443-29.265 19.985-19.236 18.168-29.404 41.016-29.404 66.074v88.694h-94.221v-240.514zm202.437 240.514h-93.217v-88.694c0-20.963 8.19-39.41 24.345-54.829 8.821-8.419 17.784-13.654 22.267-15.994 10.661 5.562 46.605 27.533 46.605 70.822zm124.221-390.3c0-16.308 13.267-29.575 29.574-29.575s29.574 13.267 29.574 29.575v9.534h-59.148zm-11.022 39.595v-15.061h81.193v15.061z" fill="#ffffff" data-original="#000000" style="" class=""/></g></g></g></svg>
