<?xml version="1.0"?>
<svg xmlns="http://www.w3.org/2000/svg" xmlns:xlink="http://www.w3.org/1999/xlink" xmlns:svgjs="http://svgjs.com/svgjs" version="1.1" width="512" height="512" x="0" y="0" viewBox="0 0 512.002 512.002" style="enable-background:new 0 0 512 512" xml:space="preserve"><g><g xmlns="http://www.w3.org/2000/svg"><g><path d="m482.002 452.002h-56.444l-19.567-430.909c-.155-3.408-2.036-6.501-4.99-8.207l-20-11.547c-3.094-1.787-6.906-1.786-10 0l-20 11.547c-3.094 1.786-5 5.087-5 8.66v11.548h-20v-11.547c0-3.573-1.906-6.874-5-8.66l-20-11.547c-3.094-1.787-6.906-1.786-10 0l-20 11.547c-3.094 1.786-5 5.087-5 8.66v11.548h-20v-11.548c0-3.573-1.906-6.874-5-8.66l-20-11.547c-3.094-1.787-6.906-1.786-10 0l-20 11.547c-3.094 1.786-5 5.087-5 8.66v11.548h-20v-11.548c0-3.573-1.906-6.874-5-8.66l-20-11.547c-3.094-1.787-6.905-1.786-10 0l-20 11.547c-2.954 1.706-4.835 4.799-4.99 8.207l-19.566 430.908h-56.445c-16.542 0-30 13.458-30 30s13.458 30 30 30h452.001c16.542 0 30-13.458 30-30s-13.457-30-29.999-30zm-374.628-20.001h47.229c5.523 0 10-4.477 10-10s-4.477-10-10-10h-46.321l17.46-384.531 10.259-5.923 10 5.773v15.774c0 5.523 4.477 10 10 10h40c5.523 0 10-4.477 10-10v-15.774l10-5.773 10 5.773v15.774c0 5.523 4.477 10 10 10h40c5.523 0 10-4.477 10-10v-15.774l10-5.773 10 5.773v15.774c0 5.523 4.477 10 10 10h40c5.523 0 10-4.477 10-10v-15.774l10-5.773 10.259 5.923 19.278 424.532h-299.073zm374.628 60.001h-452.002c-5.514 0-10-4.486-10-10s4.486-10 10-10h452.001c5.514 0 10 4.486 10 10s-4.485 10-9.999 10z" fill="#ffffff" data-original="#000000" style=""/><path d="m256.001 262.447c-19.299 0-35 15.701-35 35v45c0 5.523 4.477 10 10 10h50c5.523 0 10-4.477 10-10v-45c0-19.299-15.701-35-35-35zm15 69.999h-30v-35c0-8.271 6.729-15 15-15 8.271 0 15 6.729 15 15z" fill="#ffffff" data-original="#000000" style=""/><path d="m236.001 187.446h40c5.523 0 10-4.477 10-10v-30c0-16.542-13.458-30-30-30s-30 13.458-30 30v30c0 5.523 4.477 10 10 10zm10-40c0-5.514 4.486-10 10-10 5.514 0 10 4.486 10 10v20h-20z" fill="#ffffff" data-original="#000000" style=""/><path d="m199.599 412.001c-5.523 0-10 4.477-10 10s4.477 10 10 10h.007c5.523 0 9.997-4.477 9.997-10s-4.481-10-10.004-10z" fill="#ffffff" data-original="#000000" style=""/></g></g></g></svg>
