<svg xmlns="http://www.w3.org/2000/svg" width="90" height="83.051" viewBox="0 0 90 83.051">
  <path id="Icon_weather-day-sunny-overcast" data-name="Icon weather-day-sunny-overcast" d="M3.708,47.63a3.309,3.309,0,0,0,1.057,2.53,3.77,3.77,0,0,0,2.719.982h6.383a3.651,3.651,0,0,0,2.606-1.02,3.32,3.32,0,0,0,1.1-2.493,3.528,3.528,0,0,0-1.057-2.681,3.685,3.685,0,0,0-2.606-1.057H7.485a3.671,3.671,0,0,0-2.719,1.057A3.419,3.419,0,0,0,3.708,47.63Zm6.685,23.34a12.992,12.992,0,0,0,4,9.517,12.909,12.909,0,0,0,9.48,4H49.784a12.73,12.73,0,0,0,9.4-3.966,13.116,13.116,0,0,0,3.928-9.555,12.19,12.19,0,0,0-.793-4.645,21.666,21.666,0,0,0,7.44-8.007,22.252,22.252,0,0,0,.944-19.526A22.409,22.409,0,0,0,58.66,26.744,21.8,21.8,0,0,0,49.9,24.931a22.16,22.16,0,0,0-11.406,3.059,22.646,22.646,0,0,0-8.233,8.233,22.328,22.328,0,0,0-2.984,11.368v1.284a15.492,15.492,0,0,0-7.478,9.4,13.136,13.136,0,0,0-6.836,4.8A13,13,0,0,0,10.393,70.97Zm5.892-53.479a3.355,3.355,0,0,0,.982,2.53L23.347,26.4a3.986,3.986,0,0,0,5.325,0,3.558,3.558,0,0,0,1.057-2.644,3.679,3.679,0,0,0-1.057-2.644l-6.232-6.232a3.918,3.918,0,0,0-2.644-1.1,3.281,3.281,0,0,0-2.568,1.057A3.786,3.786,0,0,0,16.285,17.491ZM17.871,70.97a5.871,5.871,0,0,1,1.511-4.079,5.756,5.756,0,0,1,3.852-1.926l2.342-.3c.491,0,.755-.3.755-.869l.34-2.115a8.435,8.435,0,0,1,2.757-5.439,7.909,7.909,0,0,1,5.59-2.191,8.114,8.114,0,0,1,5.7,2.191,8.531,8.531,0,0,1,2.833,5.439l.3,2.455c.227.567.529.869.906.869h4.985a5.887,5.887,0,0,1,4.23,1.775,5.622,5.622,0,0,1,1.775,4.23,6.018,6.018,0,0,1-1.775,4.343,5.717,5.717,0,0,1-4.23,1.813H23.876a5.623,5.623,0,0,1-4.268-1.813A6.071,6.071,0,0,1,17.871,70.97ZM34.564,46.837a15.321,15.321,0,0,1,4.8-10.424A14.752,14.752,0,0,1,49.9,32.183a14.548,14.548,0,0,1,10.726,4.494,14.99,14.99,0,0,1,4.419,10.915,14.689,14.689,0,0,1-1.926,7.365A15.41,15.41,0,0,1,57.9,60.433a11.664,11.664,0,0,0-7.667-2.757,15.345,15.345,0,0,0-5.816-7.893,15.776,15.776,0,0,0-9.366-2.946h-.491ZM46.234,13.79a3.652,3.652,0,0,0,1.1,2.644,3.72,3.72,0,0,0,6.345-2.644V4.952a3.32,3.32,0,0,0-1.1-2.493,3.888,3.888,0,0,0-5.25,0,3.32,3.32,0,0,0-1.1,2.493ZM70.1,71.31a3.806,3.806,0,0,0,1.02,2.644l6.194,6.118q2.379,2.379,5.325,0a3.3,3.3,0,0,0,.982-2.568,3.537,3.537,0,0,0-.982-2.53l-6.383-6.307a3.6,3.6,0,0,0-2.568-.944,3.443,3.443,0,0,0-2.568,1.02A3.5,3.5,0,0,0,70.1,71.31Zm0-47.625a3.925,3.925,0,0,0,1.02,2.719,3.744,3.744,0,0,0,5.136,0l6.383-6.383a3.275,3.275,0,0,0,.982-2.53,3.447,3.447,0,0,0-1.1-2.606,3.709,3.709,0,0,0-2.644-1.057,3.545,3.545,0,0,0-2.568,1.1l-6.194,6.156A3.529,3.529,0,0,0,70.1,23.685ZM79.847,47.63A3.309,3.309,0,0,0,80.9,50.16a3.77,3.77,0,0,0,2.719.982h6.383a3.651,3.651,0,0,0,2.606-1.02,3.32,3.32,0,0,0,1.1-2.493,3.528,3.528,0,0,0-1.057-2.681,3.685,3.685,0,0,0-2.606-1.057H83.662a3.671,3.671,0,0,0-2.719,1.057A3.443,3.443,0,0,0,79.847,47.63Z" transform="translate(-3.708 -1.44)" fill="#fff"/>
</svg>
