<svg xmlns="http://www.w3.org/2000/svg" width="40" height="46.07" viewBox="0 0 40 46.07">
  <path id="Icon_metro-fire" data-name="Icon metro-fire" d="M15.962,48c-3.07-6.389-1.435-10.05.925-13.5a21.506,21.506,0,0,0,3.25-7.516,8.831,8.831,0,0,1,1.219,6.771,17.09,17.09,0,0,0,3.724-12.8C33.192,26.625,36.659,38.9,31.987,48c24.851-14.061,6.182-35.1,2.931-37.47,1.083,2.37,1.289,6.382-.9,8.329C30.313,4.807,21.152,1.928,21.152,1.928c1.083,7.245-3.927,15.168-8.759,21.088-.17-2.889-.35-4.883-1.869-7.647-.341,5.248-4.352,9.527-5.438,14.785C3.614,37.275,6.188,42.489,15.962,48Z" transform="translate(-4.701 -1.928)" fill="#fff"/>
</svg>
