<svg xmlns="http://www.w3.org/2000/svg" width="20" height="20" viewBox="0 0 20 20">
  <path id="Icon_awesome-temperature-high" data-name="Icon awesome-temperature-high" d="M16.25,0A3.75,3.75,0,1,0,20,3.75,3.756,3.756,0,0,0,16.25,0Zm0,5A1.25,1.25,0,1,1,17.5,3.75,1.249,1.249,0,0,1,16.25,5ZM10,4.375a4.375,4.375,0,0,0-8.75,0v6.5a5.615,5.615,0,1,0,10,3.5,5.575,5.575,0,0,0-1.25-3.5ZM5.625,17.5A3.12,3.12,0,0,1,3.75,11.883V4.375a1.875,1.875,0,0,1,3.75,0v7.508A3.12,3.12,0,0,1,5.625,17.5Zm.625-4.887V4.375a.625.625,0,0,0-1.25,0v8.238a1.875,1.875,0,1,0,1.25,0Z" fill="#fff"/>
</svg>
