<svg xmlns="http://www.w3.org/2000/svg" width="20" height="25.816" viewBox="0 0 20 25.816">
  <path id="Icon_weather-humidity" data-name="Icon weather-humidity" d="M9.072,22.382a10.745,10.745,0,0,1,.972-4.089,22.958,22.958,0,0,1,2.51-4.467,49.131,49.131,0,0,1,5.479-6.3l1.012-.972a8.639,8.639,0,0,0,1.12.972c.553.567,1.4,1.5,2.537,2.821s2.119,2.5,2.928,3.576a23.98,23.98,0,0,1,2.443,4.386,10.7,10.7,0,0,1,1,4.089,9.676,9.676,0,0,1-.783,3.86,10.03,10.03,0,0,1-9.244,6.113,9.9,9.9,0,0,1-3.86-.769A9.751,9.751,0,0,1,12,29.507a10.053,10.053,0,0,1-2.928-7.126Zm3.05-3.954a4.585,4.585,0,0,0,.7,2.686,2.466,2.466,0,0,0,2.146,1,2.517,2.517,0,0,0,2.173-1,4.627,4.627,0,0,0,.729-2.686,4.7,4.7,0,0,0-.729-2.7,2.5,2.5,0,0,0-2.173-1,2.466,2.466,0,0,0-2.146,1A4.6,4.6,0,0,0,12.122,18.428Zm2.119,0v-.472c0-.108.013-.256.027-.445a1.516,1.516,0,0,1,.067-.432c.04-.094.067-.216.121-.324a.53.53,0,0,1,.2-.243.591.591,0,0,1,.31-.081.6.6,0,0,1,.445.162.956.956,0,0,1,.229.513c.04.243.067.432.081.607s.013.4.013.7,0,.54-.013.7-.04.364-.081.607a.956.956,0,0,1-.229.513.6.6,0,0,1-.445.162.592.592,0,0,1-.31-.081.453.453,0,0,1-.2-.243,1.942,1.942,0,0,1-.121-.324,2.653,2.653,0,0,1-.067-.432c-.013-.189-.027-.337-.027-.432S14.241,18.63,14.241,18.428Zm.8,10.459h1.781l6.734-14.494H21.731Zm5.8-4.035a4.7,4.7,0,0,0,.742,2.7,2.491,2.491,0,0,0,2.159,1,2.475,2.475,0,0,0,2.159-1,4.673,4.673,0,0,0,.715-2.7,4.627,4.627,0,0,0-.715-2.686,2.475,2.475,0,0,0-2.159-1,2.491,2.491,0,0,0-2.159,1A4.529,4.529,0,0,0,20.84,24.852Zm2.119,0c0-.31,0-.54.013-.7s.04-.364.081-.607a.909.909,0,0,1,.229-.513.6.6,0,0,1,.445-.162.641.641,0,0,1,.324.081.516.516,0,0,1,.216.256c.054.121.094.229.135.324a1.516,1.516,0,0,1,.067.432l.013.432v.931l-.013.432-.067.432-.135.324-.216.256-.324.081a.6.6,0,0,1-.445-.162.956.956,0,0,1-.229-.513q-.061-.364-.081-.607C22.959,25.4,22.959,25.162,22.959,24.852Z" transform="translate(-9.072 -6.552)" fill="#fff"/>
</svg>
