<svg xmlns="http://www.w3.org/2000/svg" width="20" height="13.846" viewBox="0 0 20 13.846">
  <path id="Icon_metro-wind" data-name="Icon metro-wind" d="M24.059,12.717a2.286,2.286,0,0,0-2.166,3.077H7.136a.769.769,0,1,0,0,1.538H24.059a2.308,2.308,0,1,0,0-4.615ZM7.136,14.256h9.231A2.34,2.34,0,1,0,14.2,12.717H7.136a.769.769,0,0,0,0,1.538Zm12.308,4.615c-.045,0-.088.01-.134.014-.03,0-.055-.014-.085-.014H7.356a.9.9,0,0,0-.99.769.9.9,0,0,0,.99.769h9.921a2.3,2.3,0,1,0,2.166-1.538Z" transform="translate(-6.367 -9.64)" fill="#fff"/>
</svg>
